<svg width="95" height="28" viewBox="0 0 95 28" fill="none" xmlns="http://www.w3.org/2000/svg">
<path d="M94.0816 24.7825C94.0816 26.239 92.8772 27.4188 91.3875 27.4188H3.22298C1.734 27.4188 0.525391 26.239 0.525391 24.7825V3.75888C0.525391 2.30307 1.734 1.11914 3.22298 1.11914H91.3868C92.8772 1.11914 94.0809 2.30307 94.0809 3.75888L94.0816 24.7825Z" fill="#1E1E2A"/>
<path d="M91.1034 1.15199C92.7258 1.15199 94.0459 2.43911 94.0459 4.02089V24.5192C94.0459 26.101 92.7258 27.3881 91.1034 27.3881H3.50398C1.88164 27.3881 0.561512 26.101 0.561512 24.5192V4.02089C0.561512 2.43911 1.88164 1.15199 3.50398 1.15199H91.1034ZM91.1034 0.604516H3.50398C1.57767 0.604516 0 2.14274 0 4.02089V24.5192C0 26.3973 1.57767 27.9355 3.50398 27.9355H91.1034C93.0297 27.9355 94.6074 26.3973 94.6074 24.5192V4.02089C94.6074 2.14274 93.0297 0.604516 91.1034 0.604516Z" fill="#A6A6A6"/>
<path d="M19.7866 4.85156C19.9029 5.88263 19.4839 6.89866 18.8714 7.64548C18.2322 8.38068 17.2098 8.94302 16.2139 8.87059C16.0836 7.87847 16.5882 6.8235 17.153 6.17985C17.7914 5.44943 18.9001 4.88983 19.7866 4.85156Z" fill="white"/>
<path d="M23.0466 10.7994C22.9355 10.8641 21.0937 11.9358 21.1139 14.1216C21.137 16.7611 23.4819 17.6336 23.5106 17.6432C23.4966 17.7047 23.1434 18.9024 22.2639 20.1187C21.5295 21.1894 20.76 22.2361 19.5378 22.2553C18.9568 22.2683 18.5644 22.1054 18.1556 21.9357C17.7292 21.7586 17.2848 21.5741 16.5896 21.5741C15.8525 21.5741 15.3884 21.7645 14.9408 21.9482C14.5538 22.107 14.1792 22.2607 13.6511 22.2819C12.4871 22.3236 11.5978 21.1388 10.8367 20.0777C9.31531 17.911 8.13096 13.9719 9.71897 11.2914C10.4884 9.97681 11.8914 9.13023 13.3911 9.10769C14.0515 9.09452 14.6849 9.34267 15.2402 9.5602C15.6648 9.72655 16.0437 9.87501 16.3541 9.87501C16.6267 9.87501 16.995 9.73249 17.4242 9.56639C18.1007 9.30462 18.9285 8.98426 19.7719 9.07079C20.3486 9.08719 21.9899 9.29285 23.0488 10.7981L23.0466 10.7994Z" fill="white"/>
<path d="M49.0862 9.78287H49.8199V5.08398H49.0862V9.78287Z" fill="white"/>
<path fill-rule="evenodd" clip-rule="evenodd" d="M34.3757 7.44343C34.3757 8.24764 34.1283 8.85303 33.6343 9.25958C33.1766 9.63469 32.5263 9.8226 31.6839 9.8226C31.2663 9.8226 30.9089 9.80483 30.6096 9.7693V5.37515C31 5.31366 31.4204 5.28223 31.8746 5.28223C32.677 5.28223 33.2818 5.45236 33.6896 5.79263C34.1465 6.17732 34.3757 6.72736 34.3757 7.44343ZM33.6013 7.46324C33.6013 6.9419 33.4598 6.54219 33.1766 6.26341C32.8935 5.98532 32.48 5.84593 31.9355 5.84593C31.7043 5.84593 31.5073 5.86096 31.3441 5.89239V9.23293C31.4345 9.24659 31.5998 9.25274 31.8402 9.25274C32.4023 9.25274 32.8361 9.10037 33.1416 8.79563C33.4471 8.49089 33.6013 8.04676 33.6013 7.46324Z" fill="white"/>
<path fill-rule="evenodd" clip-rule="evenodd" d="M38.4819 8.14552C38.4819 8.6409 38.3368 9.04676 38.0467 9.36517C37.7426 9.69246 37.3396 9.85576 36.8364 9.85576C36.3515 9.85576 35.9654 9.69929 35.6773 9.38498C35.39 9.07136 35.2463 8.67574 35.2463 8.19882C35.2463 7.70003 35.3942 7.29074 35.6913 6.97302C35.9885 6.6553 36.3879 6.49609 36.8911 6.49609C37.3761 6.49609 37.7657 6.65256 38.0607 6.96619C38.3411 7.27093 38.4819 7.66449 38.4819 8.14552ZM37.7201 8.16875C37.7201 7.87153 37.6543 7.61667 37.5232 7.40417C37.369 7.14726 37.1497 7.0188 36.8645 7.0188C36.5694 7.0188 36.3452 7.14726 36.191 7.40417C36.0593 7.61667 35.9941 7.87563 35.9941 8.18174C35.9941 8.47896 36.06 8.73382 36.191 8.94632C36.3501 9.20323 36.5715 9.33169 36.8575 9.33169C37.1378 9.33169 37.3578 9.20118 37.5162 8.93949C37.6522 8.72289 37.7201 8.46598 37.7201 8.16875Z" fill="white"/>
<path d="M43.2648 6.56221L43.9859 6.56152L42.9522 9.78249H42.2795L41.8513 8.38382C41.7426 8.03467 41.6544 7.68756 41.5857 7.34319H41.5724C41.5086 7.69713 41.4203 8.04355 41.3068 8.38382L40.8519 9.78249H40.1715L39.1995 6.56152H39.9542L40.3277 8.09274C40.4181 8.45488 40.4924 8.79994 40.552 9.12654H40.5653C40.62 8.85733 40.7104 8.51433 40.8379 8.09958L41.3068 6.56221H41.9052L42.3544 8.06678C42.4631 8.4337 42.5514 8.78695 42.6193 9.12722H42.6397C42.6894 8.79584 42.7644 8.44258 42.8639 8.06678L43.2648 6.56221Z" fill="white"/>
<path d="M47.7944 9.78275H47.0599V7.9379C47.0599 7.36942 46.8385 7.08517 46.3942 7.08517C46.1762 7.08517 46.0003 7.16307 45.8637 7.31954C45.7284 7.47601 45.6597 7.66049 45.6597 7.87162V9.78207H44.9253V7.48216C44.9253 7.19928 44.9162 6.89249 44.8987 6.56042H45.5441L45.5785 7.06399H45.5988C45.6843 6.90752 45.8118 6.77838 45.9793 6.67521C46.1783 6.55495 46.4012 6.49414 46.6451 6.49414C46.9534 6.49414 47.2099 6.59117 47.4138 6.7859C47.6675 7.02436 47.7944 7.38035 47.7944 7.85318V9.78275Z" fill="white"/>
<path fill-rule="evenodd" clip-rule="evenodd" d="M54.144 8.14552C54.144 8.6409 53.999 9.04676 53.7088 9.36517C53.4047 9.69246 53.001 9.85576 52.4986 9.85576C52.0129 9.85576 51.6268 9.69929 51.3394 9.38498C51.0521 9.07136 50.9084 8.67574 50.9084 8.19882C50.9084 7.70003 51.0563 7.29074 51.3535 6.97302C51.6506 6.6553 52.05 6.49609 52.5525 6.49609C53.0382 6.49609 53.4271 6.65256 53.7228 6.96619C54.0032 7.27093 54.144 7.66449 54.144 8.14552ZM53.3816 8.16875C53.3816 7.87153 53.3157 7.61667 53.1846 7.40417C53.0312 7.14726 52.8111 7.0188 52.5266 7.0188C52.2309 7.0188 52.0066 7.14726 51.8531 7.40417C51.7214 7.61667 51.6562 7.87563 51.6562 8.18174C51.6562 8.47896 51.7221 8.73382 51.8531 8.94632C52.0122 9.20323 52.2337 9.33169 52.5196 9.33169C52.7999 9.33169 53.0192 9.20118 53.1776 8.93949C53.3143 8.72289 53.3816 8.46598 53.3816 8.16875Z" fill="white"/>
<path fill-rule="evenodd" clip-rule="evenodd" d="M57.0392 9.78265H57.6987C57.6671 9.5927 57.651 9.33647 57.651 9.01465V7.82848C57.651 6.94022 57.2179 6.49609 56.3545 6.49609C55.9074 6.49609 55.5283 6.58902 55.2213 6.77419L55.3706 7.24428C55.6187 7.08576 55.906 7.00582 56.2319 7.00582C56.6895 7.00582 56.918 7.21763 56.918 7.64195V7.70208C56.3062 7.69729 55.831 7.7991 55.4932 8.00682C55.1548 8.21453 54.9866 8.51449 54.9866 8.90806C54.9866 9.16838 55.0728 9.38772 55.2452 9.564C55.4351 9.75805 55.6874 9.85576 55.9992 9.85576C56.4169 9.85576 56.7386 9.70749 56.9642 9.41163H56.9845L57.0392 9.78265ZM56.9362 8.179V8.67574C56.9362 8.72426 56.932 8.76662 56.9243 8.80147C56.8927 8.95657 56.8079 9.08298 56.6699 9.18273C56.5325 9.28181 56.3819 9.33169 56.2207 9.33169C56.077 9.33169 55.9565 9.29001 55.8619 9.20597C55.7673 9.12192 55.721 8.9962 55.721 8.82811C55.721 8.38193 56.1261 8.16534 56.9362 8.179Z" fill="white"/>
<path fill-rule="evenodd" clip-rule="evenodd" d="M61.8706 9.78287H61.2189L61.1845 9.26563H61.1642C60.9561 9.6592 60.6015 9.85598 60.1032 9.85598C59.7052 9.85598 59.3737 9.70361 59.1109 9.39887C58.8481 9.09413 58.717 8.69851 58.717 8.2127C58.717 7.69137 58.8593 7.2691 59.1452 6.94659C59.422 6.64595 59.7612 6.49563 60.1649 6.49563C60.6085 6.49563 60.9189 6.64117 61.0955 6.93293H61.1096V5.08398H61.8447V8.91511C61.8447 9.22874 61.8531 9.51776 61.8706 9.78287ZM61.1096 8.42452V7.88747C61.1096 7.79454 61.1025 7.71938 61.0892 7.66198C61.0479 7.4898 60.9589 7.34494 60.8236 7.2281C60.687 7.11126 60.5223 7.0525 60.3324 7.0525C60.0584 7.0525 59.8439 7.15841 59.6862 7.37091C59.53 7.58341 59.4508 7.85467 59.4508 8.18606C59.4508 8.50446 59.5258 8.76274 59.6764 8.96157C59.8355 9.17339 60.0499 9.2793 60.3184 9.2793C60.5594 9.2793 60.7521 9.19116 60.8986 9.01419C61.0402 8.85088 61.1096 8.6541 61.1096 8.42452Z" fill="white"/>
<path fill-rule="evenodd" clip-rule="evenodd" d="M67.7166 9.36517C68.0068 9.04676 68.1518 8.6409 68.1518 8.14552C68.1518 7.66449 68.011 7.27093 67.7307 6.96619C67.4363 6.65256 67.046 6.49609 66.5617 6.49609C66.0579 6.49609 65.6584 6.6553 65.3613 6.97302C65.0641 7.29074 64.9163 7.70003 64.9163 8.19882C64.9163 8.67574 65.0599 9.07136 65.3473 9.38498C65.636 9.69929 66.0221 9.85576 66.5064 9.85576C67.0102 9.85576 67.4125 9.69246 67.7166 9.36517ZM67.1938 7.40417C67.3249 7.61667 67.3908 7.87153 67.3908 8.16875C67.3908 8.46598 67.3221 8.72289 67.1868 8.93949C67.0285 9.20118 66.8077 9.33169 66.5274 9.33169C66.2415 9.33169 66.02 9.20323 65.8609 8.94632C65.7299 8.73382 65.664 8.47896 65.664 8.18174C65.664 7.87563 65.7292 7.61667 65.8609 7.40417C66.0158 7.14726 66.2401 7.0188 66.5344 7.0188C66.8203 7.0188 67.039 7.14726 67.1938 7.40417Z" fill="white"/>
<path d="M72.1023 9.78275H71.3685V7.9379C71.3685 7.36942 71.1471 7.08517 70.7021 7.08517C70.4841 7.08517 70.3082 7.16307 70.1723 7.31954C70.0363 7.47601 69.9683 7.66049 69.9683 7.87162V9.78207H69.2332V7.48216C69.2332 7.19928 69.2248 6.89249 69.2073 6.56042H69.852L69.8863 7.06399H69.9067C69.9929 6.90752 70.1204 6.77838 70.2872 6.67521C70.4869 6.55495 70.7091 6.49414 70.9537 6.49414C71.2613 6.49414 71.5178 6.59117 71.7217 6.7859C71.9761 7.02436 72.1023 7.38035 72.1023 7.85318V9.78275Z" fill="white"/>
<path d="M76.2348 7.0983H77.0428V6.56125H76.2341V5.75977L75.5143 5.97158V6.56193H75.0315V7.0983H75.5143V8.72245C75.5143 9.129 75.5956 9.41871 75.7596 9.59089C75.9229 9.76308 76.1486 9.84917 76.4387 9.84917C76.6735 9.84917 76.8641 9.82252 77.0091 9.76923L76.9902 9.22602C76.904 9.24857 76.7947 9.2595 76.6629 9.2595C76.3784 9.2595 76.2348 9.06067 76.2348 8.663V7.0983Z" fill="white"/>
<path d="M80.9321 9.78287H80.1969V7.95169C80.1969 7.37433 79.9755 7.0853 79.5319 7.0853C79.1913 7.0853 78.9586 7.2527 78.8311 7.58751C78.8093 7.65788 78.7967 7.74398 78.7967 7.8451V9.78219H78.063V5.08398H78.7967V7.02517H78.8107C79.042 6.67192 79.3735 6.49563 79.8031 6.49563C80.1072 6.49563 80.3588 6.59266 80.5585 6.78739C80.8073 7.02995 80.9321 7.39072 80.9321 7.86765V9.78287Z" fill="white"/>
<path fill-rule="evenodd" clip-rule="evenodd" d="M84.9158 8.34464C84.9333 8.2565 84.9431 8.14854 84.9431 8.02009C84.9431 7.61832 84.8457 7.2801 84.6488 7.00679C84.4049 6.66242 84.044 6.49023 83.5689 6.49023C83.0832 6.49023 82.6985 6.66242 82.414 7.00679C82.1414 7.3293 82.0061 7.7338 82.0061 8.21961C82.0061 8.7143 82.1512 9.10855 82.4441 9.40236C82.7356 9.69616 83.1386 9.84307 83.6502 9.84307C84.077 9.84307 84.4456 9.77679 84.7588 9.64423L84.6439 9.14681C84.3762 9.24862 84.0791 9.29918 83.7532 9.29918C83.4589 9.29918 83.2185 9.22402 83.0321 9.0737C82.8281 8.90561 82.723 8.66305 82.7132 8.34464H84.9158ZM84.1001 7.28488C84.1996 7.4393 84.2479 7.62242 84.2423 7.83492H82.7132C82.737 7.61832 82.8092 7.43315 82.9312 7.27805C83.0804 7.08332 83.2759 6.98629 83.5156 6.98629C83.7784 6.98629 83.9725 7.08605 84.1001 7.28488Z" fill="white"/>
<path d="M61.6981 19.5796C61.6981 20.3531 61.4227 20.9824 60.8698 21.4682C60.2622 21.9991 59.4163 22.2642 58.3294 22.2642C57.3259 22.2642 56.5213 22.0756 55.9124 21.6978L56.2585 20.4836C56.9145 20.8703 57.6342 21.0644 58.4184 21.0644C58.9811 21.0644 59.4191 20.94 59.7338 20.6927C60.0471 20.4453 60.2033 20.1132 60.2033 19.6992C60.2033 19.3302 60.0744 19.0193 59.8158 18.7672C59.5586 18.5151 59.129 18.2807 58.5291 18.0641C56.8963 17.4703 56.0806 16.6005 56.0806 15.4567C56.0806 14.7092 56.3665 14.0963 56.939 13.6194C57.5095 13.1418 58.2705 12.9033 59.2222 12.9033C60.0709 12.9033 60.7759 13.0475 61.3386 13.3352L60.9651 14.5227C60.4395 14.2439 59.8452 14.1045 59.1802 14.1045C58.6546 14.1045 58.2439 14.2309 57.9496 14.4824C57.7008 14.7072 57.576 14.9812 57.576 15.3057C57.576 15.6651 57.7183 15.9623 58.0042 16.196C58.253 16.4119 58.705 16.6456 59.361 16.8978C60.1634 17.2127 60.7528 17.581 61.1319 18.0033C61.5096 18.4242 61.6981 18.951 61.6981 19.5796Z" fill="white"/>
<path fill-rule="evenodd" clip-rule="evenodd" d="M36.0029 22.1292H37.5944L34.5775 13.0361H32.7232L29.7209 22.1292H31.2704L32.1008 19.4582H35.1311L36.0029 22.1292ZM34.0799 15.9633L34.8683 18.3377H32.3643L33.1387 15.9633C33.342 15.2083 33.4898 14.637 33.5816 14.2503H33.6097C33.8402 15.1495 33.9965 15.7207 34.0799 15.9633Z" fill="white"/>
<path fill-rule="evenodd" clip-rule="evenodd" d="M44.389 21.4144C45.0071 20.7673 45.3161 19.8859 45.3161 18.7708C45.3161 17.7725 45.0512 16.9676 44.52 16.3554C43.9902 15.7439 43.328 15.4385 42.5347 15.4385C41.5199 15.4385 40.7638 15.8293 40.2655 16.6123H40.2375L40.1541 15.5731H38.8401C38.8765 16.311 38.8955 17.0305 38.8955 17.7316V24.8014H40.3895V21.3474H40.4176C40.8051 21.9679 41.4414 22.2781 42.3272 22.2781C43.1479 22.2781 43.8354 21.9904 44.389 21.4144ZM43.3511 17.2457C43.6468 17.6598 43.794 18.1859 43.794 18.8241C43.794 19.517 43.637 20.0745 43.3231 20.4975C43.0098 20.9197 42.5718 21.1315 42.0091 21.1315C41.5297 21.1315 41.1401 20.9675 40.8402 20.6389C40.5402 20.3102 40.3902 19.9078 40.3902 19.4309V18.3376C40.3902 18.2215 40.4134 18.0739 40.4596 17.8935C40.5514 17.5068 40.7477 17.1945 41.0476 16.9553C41.3468 16.7183 41.6818 16.598 42.0504 16.598C42.5942 16.598 43.028 16.8139 43.3511 17.2457Z" fill="white"/>
<path fill-rule="evenodd" clip-rule="evenodd" d="M53.0498 18.7708C53.0498 19.8859 52.7408 20.7673 52.122 21.4144C51.569 21.9904 50.8816 22.2781 50.0609 22.2781C49.1751 22.2781 48.5388 21.9679 48.152 21.3474H48.1239V24.8014H46.6298V17.7316C46.6298 17.0305 46.6109 16.311 46.5745 15.5731H47.8885L47.9719 16.6123H47.9999C48.4974 15.8293 49.2536 15.4385 50.2691 15.4385C51.0617 15.4385 51.7239 15.7439 52.2551 16.3554C52.7842 16.9676 53.0498 17.7725 53.0498 18.7708ZM51.5277 18.8241C51.5277 18.1859 51.3798 17.6598 51.0841 17.2457C50.761 16.8139 50.3286 16.598 49.7841 16.598C49.4148 16.598 49.0805 16.7183 48.7806 16.9553C48.4806 17.1945 48.2851 17.5068 48.1933 17.8935C48.1477 18.0739 48.1239 18.2215 48.1239 18.3376V19.4309C48.1239 19.9078 48.2739 20.3102 48.5724 20.6389C48.8724 20.9669 49.262 21.1315 49.7428 21.1315C50.3055 21.1315 50.7435 20.9197 51.0568 20.4975C51.3707 20.0745 51.5277 19.517 51.5277 18.8241Z" fill="white"/>
<path d="M66.6387 16.6654H64.9918V19.8488C64.9918 20.6585 65.2819 21.063 65.8636 21.063C66.1306 21.063 66.352 21.0404 66.5272 20.9953L66.5686 22.1016C66.2742 22.2088 65.8867 22.2628 65.4067 22.2628C64.8166 22.2628 64.3555 22.0872 64.0226 21.7367C63.6911 21.3855 63.5243 20.7965 63.5243 19.9691V16.6641H62.5432V15.5708H63.5243V14.3703L64.9918 13.9385V15.5708H66.6387V16.6654Z" fill="white"/>
<path fill-rule="evenodd" clip-rule="evenodd" d="M73.1836 21.2791C73.7737 20.6321 74.0694 19.8046 74.0694 18.7968C74.0694 17.8163 73.7835 17.0162 73.2103 16.3964C72.6111 15.7576 71.8171 15.4385 70.8304 15.4385C69.8065 15.4385 68.9922 15.7624 68.3888 16.4101C67.784 17.0572 67.4827 17.8894 67.4827 18.9054C67.4827 19.8764 67.7756 20.6819 68.3615 21.3201C68.9473 21.9583 69.7329 22.2774 70.7196 22.2774C71.7435 22.2774 72.5648 21.9453 73.1836 21.2791ZM72.1184 17.2881C72.3868 17.7206 72.5193 18.2392 72.5193 18.8439C72.5193 19.4479 72.3805 19.972 72.1051 20.4127C71.782 20.9443 71.3342 21.2108 70.7638 21.2108C70.1814 21.2108 69.7301 20.9498 69.4071 20.4264C69.1386 19.9946 69.0062 19.476 69.0062 18.8713C69.0062 18.2481 69.1386 17.7213 69.4071 17.2881C69.7203 16.7654 70.1765 16.5037 70.7771 16.5037C71.3574 16.5037 71.8052 16.7647 72.1184 17.2881Z" fill="white"/>
<path d="M78.9243 16.8542C78.7765 16.8276 78.6188 16.8139 78.4534 16.8139C77.9278 16.8139 77.5213 17.0073 77.2354 17.3947C76.9866 17.7363 76.8619 18.1682 76.8619 18.6895V22.1298H75.3685L75.3825 17.6379C75.3825 16.8822 75.3636 16.1942 75.3264 15.5738H76.6278L76.6825 16.8283H76.7238C76.8815 16.3971 77.1303 16.05 77.4709 15.7897C77.8037 15.5553 78.1633 15.4385 78.5508 15.4385C78.6888 15.4385 78.8136 15.448 78.9243 15.4651V16.8542Z" fill="white"/>
<path fill-rule="evenodd" clip-rule="evenodd" d="M85.5528 19.2016C85.59 19.0219 85.6075 18.8018 85.6075 18.5408C85.6075 17.723 85.4092 17.0342 85.0146 16.4773C84.5163 15.7763 83.7826 15.4258 82.8134 15.4258C81.8267 15.4258 81.0425 15.7763 80.4622 16.4773C79.9079 17.134 79.6311 17.9573 79.6311 18.946C79.6311 19.9532 79.9289 20.756 80.5232 21.3539C81.1189 21.9517 81.9374 22.251 82.9802 22.251C83.8471 22.251 84.5983 22.1164 85.2347 21.8458L85.0006 20.8346C84.4561 21.0416 83.8506 21.1448 83.1869 21.1448C82.5871 21.1448 82.0986 20.9917 81.7209 20.6863C81.3046 20.3447 81.0881 19.8493 81.0705 19.2016H85.5528ZM83.8926 17.0431C84.0952 17.3581 84.1926 17.7312 84.1828 18.163L81.0705 18.1623C81.1161 17.7223 81.264 17.3444 81.5127 17.0294C81.8162 16.6331 82.2135 16.4357 82.702 16.4357C83.2367 16.4357 83.634 16.6379 83.8926 17.0431Z" fill="white"/>
</svg>
