<svg width="15" height="11" viewBox="0 0 15 11" fill="none" xmlns="http://www.w3.org/2000/svg">
<path d="M14.1013 1.09417L9.78669 5.58661L14.1013 10.079C14.1793 9.9082 14.2267 9.71934 14.2267 9.51766V1.65556C14.2267 1.45385 14.1793 1.26501 14.1013 1.09417Z" fill="#343A47"/>
<path d="M12.9763 0.345215H1.25038C1.05791 0.345215 0.87771 0.394804 0.714687 0.476541L6.22927 6.22645C6.71687 6.73742 7.50978 6.73742 7.99738 6.22645L13.512 0.476541C13.3489 0.394804 13.1687 0.345215 12.9763 0.345215Z" fill="#343A47"/>
<path d="M0.125317 1.09417C0.0473203 1.26501 0 1.45385 0 1.65556V9.51766C0 9.71936 0.0473203 9.90823 0.125317 10.079L4.43997 5.58661L0.125317 1.09417Z" fill="#343A47"/>
<path d="M9.1973 6.20426L8.58675 6.84408C7.77431 7.69549 6.45231 7.69549 5.63986 6.84408L5.02934 6.20426L0.714687 10.6967C0.87771 10.7784 1.05791 10.828 1.25038 10.828H12.9763C13.1687 10.828 13.3489 10.7784 13.512 10.6967L9.1973 6.20426Z" fill="#343A47"/>
</svg>
