<svg width="95" height="28" viewBox="0 0 95 28" fill="none" xmlns="http://www.w3.org/2000/svg">
<path d="M91.5017 27.9355H4.0226C2.09894 27.9355 0.523438 26.3973 0.523438 24.5192V4.02089C0.523438 2.14274 2.09894 0.604514 4.0226 0.604514H91.5017C93.4253 0.604514 95.0008 2.14274 95.0008 4.02089V24.5192C95.0008 26.3973 93.4253 27.9355 91.5017 27.9355Z" fill="#1E1E2A"/>
<path d="M91.5017 1.15199C93.1218 1.15199 94.4401 2.43911 94.4401 4.02089V24.5192C94.4401 26.101 93.1218 27.3881 91.5017 27.3881H4.0226C2.40249 27.3881 1.08418 26.101 1.08418 24.5192V4.02089C1.08418 2.43911 2.40249 1.15199 4.0226 1.15199H91.5017ZM91.5017 0.604514H4.0226C2.09894 0.604514 0.523438 2.14274 0.523438 4.02089V24.5192C0.523438 26.3973 2.09894 27.9355 4.0226 27.9355H91.5017C93.4253 27.9355 95.0008 26.3973 95.0008 24.5192V4.02089C95.0008 2.14274 93.4253 0.604514 91.5017 0.604514Z" fill="#A6A6A6"/>
<path fill-rule="evenodd" clip-rule="evenodd" d="M45.2196 18.3738C45.2196 16.6887 46.5624 15.4673 48.2061 15.4673C49.8533 15.4673 51.1961 16.6887 51.1961 18.3738C51.1961 20.0452 49.8533 21.2794 48.2061 21.2794C46.5624 21.2794 45.2196 20.0452 45.2196 18.3738ZM46.5282 18.3738C46.5282 19.4081 47.3042 20.1349 48.2061 20.1349C49.108 20.1349 49.8874 19.4081 49.8874 18.3738C49.8874 17.3258 49.108 16.6118 48.2061 16.6118C47.3042 16.6118 46.5282 17.3258 46.5282 18.3738Z" fill="white"/>
<path fill-rule="evenodd" clip-rule="evenodd" d="M38.7032 18.3738C38.7032 16.6887 40.0426 15.4673 41.6898 15.4673C43.3361 15.4673 44.6763 16.6887 44.6763 18.3738C44.6763 20.0452 43.3361 21.2794 41.6898 21.2794C40.0426 21.2794 38.7032 20.0452 38.7032 18.3738ZM40.0084 18.3738C40.0084 19.4081 40.787 20.1349 41.6898 20.1349C42.5917 20.1349 43.3676 19.4081 43.3676 18.3738C43.3676 17.3258 42.5917 16.6118 41.6898 16.6118C40.787 16.6118 40.0084 17.3258 40.0084 18.3738Z" fill="white"/>
<path d="M33.9356 17.5931V16.3581H38.1871C38.2309 16.5785 38.2554 16.8424 38.2554 17.1294C38.2554 18.0535 37.9955 19.198 37.1619 20.0119C36.3483 20.8387 35.3134 21.2794 33.9356 21.2794C31.3865 21.2794 29.2441 19.2544 29.2441 16.7655C29.2441 14.2767 31.3865 12.2516 33.9356 12.2516C35.3441 12.2516 36.3483 12.7923 37.1033 13.496L36.2118 14.3664C35.6721 13.8693 34.9408 13.4858 33.9356 13.4858C32.0767 13.4858 30.6211 14.9506 30.6211 16.7655C30.6211 18.5805 32.0767 20.0452 33.9356 20.0452C35.142 20.0452 35.8287 19.5712 36.2696 19.1442C36.6317 18.7906 36.8679 18.2832 36.9563 17.5931H33.9356Z" fill="white"/>
<path fill-rule="evenodd" clip-rule="evenodd" d="M63.0942 15.4673C64.639 15.4673 65.3975 16.6656 65.6433 17.3156L65.7806 17.6461L61.7995 19.2544C62.1039 19.8386 62.5789 20.1349 63.2411 20.1349C63.9077 20.1349 64.3687 19.8146 64.7073 19.3312L65.722 19.9914C65.3975 20.4655 64.6084 21.2794 63.2411 21.2794C61.5501 21.2794 60.2887 20.0017 60.2887 18.3738C60.2887 16.6451 61.5633 15.4673 63.0942 15.4673ZM63.1388 16.5887C62.4757 16.5887 61.5501 17.1627 61.5843 18.2832L64.2463 17.2054C64.0993 16.8424 63.6584 16.5887 63.1388 16.5887Z" fill="white"/>
<path d="M59.6571 21.1026H58.3484V12.5617H59.6571V21.1026Z" fill="white"/>
<path fill-rule="evenodd" clip-rule="evenodd" d="M56.1614 16.1147H56.2052V15.6441H57.4456V20.8626C57.4456 23.0072 56.1509 23.8887 54.6166 23.8887C53.1749 23.8887 52.3062 22.9406 51.9782 22.1702L53.1163 21.7065C53.321 22.1805 53.817 22.7442 54.6166 22.7442C55.5972 22.7442 56.2052 22.1472 56.2052 21.036V20.6192H56.1614C55.8675 20.9694 55.3068 21.2794 54.5964 21.2794C53.1058 21.2794 51.7429 20.0119 51.7429 18.3832C51.7429 16.745 53.1058 15.4673 54.5964 15.4673C55.3068 15.4673 55.8675 15.7748 56.1614 16.1147ZM53.0516 18.3832C53.0516 19.3978 53.8065 20.1349 54.7084 20.1349C55.5972 20.1349 56.2979 19.3978 56.2979 18.3832C56.2979 17.3591 55.5972 16.6118 54.7084 16.6118C53.8065 16.6118 53.0516 17.3591 53.0516 18.3832Z" fill="white"/>
<path fill-rule="evenodd" clip-rule="evenodd" d="M68.6403 12.5617H71.7703C73.2164 12.5617 74.6414 13.5857 74.6414 15.2136C74.6414 16.8424 73.2198 17.8665 71.7703 17.8665H69.9455V21.1026H68.6403V12.5617ZM69.9455 16.6784H71.8044C72.779 16.6784 73.3353 15.8747 73.3353 15.2136C73.3353 14.5398 72.779 13.7497 71.8044 13.7497H69.9455V16.6784Z" fill="white"/>
<path fill-rule="evenodd" clip-rule="evenodd" d="M77.5457 16.7587C77.949 15.8576 78.9296 15.4511 79.8726 15.4511C81.3729 15.4511 82.5311 16.2983 82.5311 17.8126V21.0889H81.2705V20.4287H81.2259C80.9215 20.8788 80.4369 21.2657 79.5586 21.2657C78.41 21.2657 77.3882 20.5287 77.3882 19.3842C77.3882 18.1329 78.6593 17.4625 79.9068 17.4625C80.5287 17.4625 81.0344 17.6598 81.2705 17.793V17.7033C81.2601 17.0021 80.5733 16.605 79.8963 16.605C79.4116 16.605 78.9532 16.7587 78.7039 17.2327L77.5457 16.7587ZM78.6934 19.4081C78.6934 19.9248 79.2883 20.1315 79.7152 20.1315C80.471 20.1315 81.1682 19.5712 81.2705 18.7803C80.9215 18.6172 80.6521 18.4934 80.0773 18.4934C79.4352 18.4934 78.6934 18.747 78.6934 19.4081Z" fill="white"/>
<path d="M85.6235 19.3406L87.1238 15.6381H88.5759L84.9849 23.6914H83.6211L84.9508 20.8122L82.6203 15.6381H84.0279L85.5789 19.3406H85.6235Z" fill="white"/>
<path d="M76.6674 21.1026H75.3587V12.5617H76.6674V21.1026Z" fill="white"/>
<path d="M33.7075 7.60354C33.7075 8.17408 33.5325 8.63102 33.1879 8.9718C32.7916 9.37579 32.2755 9.57906 31.643 9.57906C31.0385 9.57906 30.5224 9.37237 30.099 8.96497C29.6747 8.55158 29.463 8.04425 29.463 7.43699C29.463 6.82973 29.6747 6.3224 30.099 5.91243C30.5224 5.50161 31.0385 5.29492 31.643 5.29492C31.9439 5.29492 32.2308 5.35556 32.5047 5.4683C32.7776 5.5819 32.9998 5.73564 33.1608 5.92524L32.7951 6.28567C32.5143 5.96197 32.132 5.80226 31.643 5.80226C31.2021 5.80226 30.8198 5.95257 30.4953 6.25578C30.1742 6.55984 30.0133 6.95357 30.0133 7.43699C30.0133 7.92041 30.1742 8.31756 30.4953 8.62162C30.8198 8.92141 31.2021 9.07514 31.643 9.07514C32.111 9.07514 32.5047 8.92141 32.8152 8.6182C33.0199 8.41749 33.1363 8.14077 33.1669 7.78717H31.643V7.2935H33.676C33.7005 7.40027 33.7075 7.50361 33.7075 7.60354Z" fill="white"/>
<path d="M36.9326 5.89173H35.0229V7.18996H36.7445V7.68362H35.0229V8.98185H36.9326V9.48491H34.4823V5.38867H36.9326V5.89173Z" fill="white"/>
<path d="M39.2099 9.48491H38.6693V5.89173H37.4979V5.38867H40.3821V5.89173H39.2099V9.48491Z" fill="white"/>
<path d="M42.4686 9.48491V5.38867H43.0084V9.48491H42.4686Z" fill="white"/>
<path d="M45.4013 9.48491H44.865V5.89173H43.6893V5.38867H46.577V5.89173H45.4013V9.48491Z" fill="white"/>
<path fill-rule="evenodd" clip-rule="evenodd" d="M52.0375 8.95813C51.6237 9.37237 51.1111 9.57906 50.4996 9.57906C49.8846 9.57906 49.372 9.37237 48.9582 8.95813C48.5453 8.54475 48.3397 8.03742 48.3397 7.43699C48.3397 6.83656 48.5453 6.32923 48.9582 5.91585C49.372 5.50161 49.8846 5.29492 50.4996 5.29492C51.1076 5.29492 51.6202 5.50161 52.034 5.91927C52.4504 6.33606 52.6559 6.83998 52.6559 7.43699C52.6559 8.03742 52.4504 8.54475 52.0375 8.95813ZM49.358 8.61479C49.6694 8.92141 50.0482 9.07514 50.4996 9.07514C50.9475 9.07514 51.3298 8.92141 51.6377 8.61479C51.9482 8.30817 52.1057 7.91443 52.1057 7.43699C52.1057 6.95955 51.9482 6.56582 51.6377 6.2592C51.3298 5.95258 50.9475 5.79884 50.4996 5.79884C50.0482 5.79884 49.6694 5.95258 49.358 6.2592C49.0474 6.56582 48.89 6.95955 48.89 7.43699C48.89 7.91443 49.0474 8.30817 49.358 8.61479Z" fill="white"/>
<path d="M53.4139 9.48491V5.38867H54.07L56.11 8.57444H56.1337L56.11 7.78697V5.38867H56.6498V9.48491H56.0864L53.9502 6.14198H53.9266L53.9502 6.93287V9.48491H53.4139Z" fill="white"/>
<path d="M7.8265 5.75601C7.62092 5.96612 7.50195 6.29323 7.50195 6.71686V21.8275C7.50195 22.2511 7.62092 22.5783 7.8265 22.7884L7.87724 22.8345L16.5499 14.3704V14.1706L7.87724 5.70647L7.8265 5.75601Z" fill="url(#paint0_linear_26_1931)"/>
<path d="M19.4365 17.1927L16.5488 14.37V14.1701L19.44 11.3473L19.5047 11.384L22.9286 13.2861C23.9058 13.8259 23.9058 14.7142 22.9286 15.2574L19.5047 17.156L19.4365 17.1927Z" fill="url(#paint1_linear_26_1931)"/>
<path d="M19.5047 17.156L16.5497 14.2703L7.8265 22.7884C8.15105 23.1215 8.68006 23.1614 9.28191 22.8283L19.5047 17.156Z" fill="url(#paint2_linear_26_1931)"/>
<path d="M19.5047 11.384L9.28178 5.71186C8.67992 5.38218 8.15105 5.42291 7.8265 5.75601L16.5497 14.2703L19.5047 11.384Z" fill="url(#paint3_linear_26_1931)"/>
<defs>
<linearGradient id="paint0_linear_26_1931" x1="22.2862" y1="6.35615" x2="12.2456" y2="24.2562" gradientUnits="userSpaceOnUse">
<stop stop-color="#00A0FF"/>
<stop offset="0.0066" stop-color="#00A1FF"/>
<stop offset="0.2601" stop-color="#00BEFF"/>
<stop offset="0.5122" stop-color="#00D2FF"/>
<stop offset="0.7604" stop-color="#00DFFF"/>
<stop offset="1" stop-color="#00E3FF"/>
</linearGradient>
<linearGradient id="paint1_linear_26_1931" x1="24.8873" y1="14.2746" x2="-13.585" y2="14.2746" gradientUnits="userSpaceOnUse">
<stop stop-color="#FFE000"/>
<stop offset="0.4087" stop-color="#FFBD00"/>
<stop offset="0.7754" stop-color="#FFA500"/>
<stop offset="1" stop-color="#FF9C00"/>
</linearGradient>
<linearGradient id="paint2_linear_26_1931" x1="21.4376" y1="26.1963" x2="-7.90124" y2="46.9879" gradientUnits="userSpaceOnUse">
<stop stop-color="#FF3A44"/>
<stop offset="1" stop-color="#C31162"/>
</linearGradient>
<linearGradient id="paint3_linear_26_1931" x1="5.63031" y1="27.8147" x2="12.5722" y2="20.7046" gradientUnits="userSpaceOnUse">
<stop stop-color="#32A071"/>
<stop offset="0.0685" stop-color="#2DA771"/>
<stop offset="0.4762" stop-color="#15CF74"/>
<stop offset="0.8009" stop-color="#06E775"/>
<stop offset="1" stop-color="#00F076"/>
</linearGradient>
</defs>
</svg>
