<svg width="20" height="21" viewBox="0 0 20 21" fill="none" xmlns="http://www.w3.org/2000/svg">
<path d="M20 10.9058C20 16.4286 15.5228 20.9058 10 20.9058C4.47715 20.9058 0 16.4286 0 10.9058C0 5.38291 4.47715 0.905762 10 0.905762C15.5228 0.905762 20 5.38291 20 10.9058Z" fill="url(#paint0_radial_26_1904)"/>
<path d="M20 10.9058C20 16.4286 15.5228 20.9058 10 20.9058C4.47715 20.9058 0 16.4286 0 10.9058C0 5.38291 4.47715 0.905762 10 0.905762C15.5228 0.905762 20 5.38291 20 10.9058Z" fill="url(#paint1_radial_26_1904)"/>
<path d="M10.0006 4.90576C8.37105 4.90576 8.16654 4.91289 7.52654 4.94201C6.88778 4.97126 6.45178 5.07239 6.07027 5.22076C5.67564 5.37401 5.34089 5.57901 5.00739 5.91264C4.67363 6.24614 4.46863 6.58089 4.31488 6.97539C4.16613 7.35701 4.06488 7.79314 4.03613 8.43164C4.0075 9.07164 4 9.27626 4 10.9058C4 12.5353 4.00725 12.7391 4.03625 13.3791C4.06563 14.0179 4.16675 14.4539 4.315 14.8354C4.46838 15.23 4.67338 15.5648 5.00701 15.8983C5.34039 16.232 5.67514 16.4375 6.06952 16.5908C6.45128 16.7391 6.8874 16.8403 7.52604 16.8695C8.16604 16.8986 8.37042 16.9058 9.99981 16.9058C11.6295 16.9058 11.8333 16.8986 12.4733 16.8695C13.1121 16.8403 13.5486 16.7391 13.9304 16.5908C14.3249 16.4375 14.6591 16.232 14.9925 15.8983C15.3262 15.5648 15.5312 15.23 15.685 14.8355C15.8325 14.4539 15.9337 14.0178 15.9637 13.3793C15.9925 12.7393 16 12.5353 16 10.9058C16 9.27626 15.9925 9.07176 15.9637 8.43176C15.9337 7.79301 15.8325 7.35701 15.685 6.97551C15.5312 6.58089 15.3262 6.24614 14.9925 5.91264C14.6587 5.57889 14.325 5.37389 13.93 5.22076C13.5475 5.07239 13.1112 4.97126 12.4725 4.94201C11.8325 4.91289 11.6287 4.90576 9.99869 4.90576H10.0006ZM9.46231 5.98701C9.62206 5.98676 9.80031 5.98701 10.0006 5.98701C11.6026 5.98701 11.7925 5.99276 12.4251 6.02151C13.0101 6.04826 13.3276 6.14601 13.5391 6.22814C13.8191 6.33689 14.0187 6.46689 14.2286 6.67689C14.4386 6.88689 14.5686 7.08689 14.6776 7.36689C14.7597 7.57814 14.8576 7.89564 14.8842 8.48064C14.913 9.11314 14.9192 9.30314 14.9192 10.9044C14.9192 12.5056 14.913 12.6956 14.8842 13.3281C14.8575 13.9131 14.7597 14.2306 14.6776 14.4419C14.5689 14.7219 14.4386 14.9213 14.2286 15.1311C14.0186 15.3411 13.8192 15.4711 13.5391 15.5799C13.3278 15.6624 13.0101 15.7599 12.4251 15.7866C11.7926 15.8154 11.6026 15.8216 10.0006 15.8216C8.39842 15.8216 8.20854 15.8154 7.57604 15.7866C6.99103 15.7596 6.67353 15.6619 6.4619 15.5798C6.1819 15.471 5.98189 15.341 5.77189 15.131C5.56189 14.921 5.43189 14.7215 5.32289 14.4414C5.24076 14.2301 5.14289 13.9126 5.11626 13.3276C5.08751 12.6951 5.08176 12.5051 5.08176 10.9029C5.08176 9.30064 5.08751 9.11164 5.11626 8.47914C5.14301 7.89414 5.24076 7.57664 5.32289 7.36514C5.43164 7.08514 5.56189 6.88514 5.77189 6.67514C5.98189 6.46514 6.1819 6.33514 6.4619 6.22614C6.6734 6.14364 6.99103 6.04614 7.57604 6.01926C8.12954 5.99426 8.34405 5.98676 9.46231 5.98551V5.98701ZM13.2033 6.98326C12.8058 6.98326 12.4833 7.30539 12.4833 7.70301C12.4833 8.10051 12.8058 8.42301 13.2033 8.42301C13.6008 8.42301 13.9234 8.10051 13.9234 7.70301C13.9234 7.30551 13.6008 6.98326 13.2033 6.98326ZM10.0006 7.82451C8.29892 7.82451 6.91928 9.20414 6.91928 10.9058C6.91928 12.6074 8.29892 13.9864 10.0006 13.9864C11.7022 13.9864 13.0813 12.6074 13.0813 10.9058C13.0813 9.20414 11.7022 7.82451 10.0006 7.82451ZM10.0006 8.90576C11.1051 8.90576 12.0006 9.80114 12.0006 10.9058C12.0006 12.0103 11.1051 12.9058 10.0006 12.9058C8.89593 12.9058 8.00054 12.0103 8.00054 10.9058C8.00054 9.80114 8.89593 8.90576 10.0006 8.90576Z" fill="white"/>
<defs>
<radialGradient id="paint0_radial_26_1904" cx="0" cy="0" r="1" gradientUnits="userSpaceOnUse" gradientTransform="translate(5.31253 22.4462) rotate(-90) scale(19.8215 18.4355)">
<stop stop-color="#FFDD55"/>
<stop offset="0.1" stop-color="#FFDD55"/>
<stop offset="0.5" stop-color="#FF543E"/>
<stop offset="1" stop-color="#C837AB"/>
</radialGradient>
<radialGradient id="paint1_radial_26_1904" cx="0" cy="0" r="1" gradientUnits="userSpaceOnUse" gradientTransform="translate(-3.35011 2.34653) rotate(78.6806) scale(8.86028 36.5225)">
<stop stop-color="#3771C8"/>
<stop offset="0.128" stop-color="#3771C8"/>
<stop offset="1" stop-color="#6600FF" stop-opacity="0"/>
</radialGradient>
</defs>
</svg>
