<svg width="12" height="13" viewBox="0 0 12 13" fill="none" xmlns="http://www.w3.org/2000/svg">
<path d="M11.019 8.46089C10.2855 8.46089 9.56534 8.34617 8.88287 8.12064C8.54845 8.00657 8.13735 8.11121 7.93324 8.32084L6.58618 9.33773C5.02396 8.50382 4.06167 7.54184 3.23915 5.99135L4.22612 4.67938C4.48254 4.4233 4.57451 4.04922 4.46432 3.69824C4.23782 3.01217 4.12276 2.29232 4.12276 1.55853C4.12279 1.02843 3.69153 0.597168 3.16146 0.597168H0.961326C0.43126 0.597168 0 1.02843 0 1.5585C0 7.63446 4.94306 12.5775 11.019 12.5775C11.5491 12.5775 11.9803 12.1462 11.9803 11.6162V9.42219C11.9803 8.89215 11.5491 8.46089 11.019 8.46089Z" fill="#343A47"/>
</svg>
