<svg width="1340" height="33" viewBox="0 0 1340 33" fill="none" xmlns="http://www.w3.org/2000/svg">
<g clip-path="url(#clip0_26_2604)">
<path d="M343 18.9114C261.946 18.9114 250.574 19.9114 169.517 19.9114C150.849 19.9114 131.872 19.4114 113 19.4114" stroke="#FF6200" stroke-width="2" stroke-linecap="round"/>
<path d="M86.9791 15.9114C92.083 13.832 92.519 12.6213 97.1152 9.59452C97.2613 9.49832 100.143 7.04889 99.9945 8.23488C99.7821 9.93372 99.2599 11.9863 98.6348 13.5935C96.6936 18.5854 96.1555 24.0383 96.1555 29.4293" stroke="#FF6200" stroke-width="2" stroke-linecap="round"/>
</g>
<g clip-path="url(#clip1_26_2604)">
<path d="M692 18.9114C622.741 18.9114 553.555 19.9114 484.292 19.9114C468.341 19.9114 452.126 19.4114 436 19.4114" stroke="#FF6200" stroke-width="2" stroke-linecap="round"/>
<path d="M413.203 17.1493C413.258 15.3354 414.985 8.96333 417.922 10.0312C420.807 11.0805 422.499 16.0839 420.241 18.429C419.776 18.9123 412.8 23.0424 413.363 24.0276C415.05 26.9802 421.186 25.7871 424 25.7871" stroke="#FF6200" stroke-width="2" stroke-linecap="round"/>
<path d="M399 18.9114C329.741 18.9114 260.555 19.9114 191.292 19.9114C175.341 19.9114 159.126 19.4114 143 19.4114" stroke="#FF6200" stroke-width="2" stroke-linecap="round"/>
</g>
<g clip-path="url(#clip2_26_2604)">
<path d="M751.768 17.1578C751.902 11.6454 756.13 11.1789 761.046 10.3596C762.884 10.0532 766.367 9.12541 767.444 11.3993C770.355 17.5455 757.287 18.4718 765.284 22.1965C777.173 27.7337 763.264 33.6707 759.686 26.5154" stroke="#FF6200" stroke-width="2" stroke-linecap="round"/>
<path d="M1039 18.9114C969.741 18.9114 900.555 19.9114 831.292 19.9114C815.341 19.9114 799.126 19.4114 783 19.4114" stroke="#FF6200" stroke-width="2" stroke-linecap="round"/>
<path d="M737 18.9114C667.741 18.9114 598.555 19.9114 529.292 19.9114C513.341 19.9114 497.126 19.4114 481 19.4114" stroke="#FF6200" stroke-width="2" stroke-linecap="round"/>
</g>
<g clip-path="url(#clip3_26_2604)">
<path d="M1082.17 10.9114C1081.92 14.9644 1081 19.0124 1081 23.0542C1081 24.0767 1081.58 23.7685 1082.33 23.7685C1085.33 23.7685 1088.32 23.8371 1091.31 23.5463C1093.06 23.3759 1092.64 23.4756 1092.38 21.2606C1092.18 19.5698 1092.27 17.8198 1092.27 16.1177C1092.27 14.8792 1092.06 13.2891 1092.29 12.0701C1092.4 11.435 1092.63 13.3128 1092.69 13.959C1092.87 15.78 1092.93 17.6515 1092.96 19.4828C1093.04 23.2893 1092.98 27.1037 1092.98 30.9114" stroke="#FF6200" stroke-width="2" stroke-linecap="round"/>
<path d="M1257 18.9114C1216.42 18.9114 1175.88 19.9114 1135.3 19.9114C1125.95 19.9114 1116.45 19.4114 1107 19.4114" stroke="#FF6200" stroke-width="2" stroke-linecap="round"/>
<path d="M1062 16.9114C1042.25 16.9114 1022.52 18.9114 1002.77 18.9114C998.222 18.9114 943.098 18.9114 938.5 18.9114" stroke="#FF6200" stroke-width="2" stroke-linecap="round"/>
</g>
<defs>
<clipPath id="clip0_26_2604">
<rect width="335" height="32" fill="white" transform="matrix(-1 0 0 1 335 0.818604)"/>
</clipPath>
<clipPath id="clip1_26_2604">
<rect width="335" height="32" fill="white" transform="matrix(-1 0 0 1 670 0.818604)"/>
</clipPath>
<clipPath id="clip2_26_2604">
<rect width="335" height="32" fill="white" transform="matrix(-1 0 0 1 1005 0.818604)"/>
</clipPath>
<clipPath id="clip3_26_2604">
<rect width="335" height="32" fill="white" transform="matrix(-1 0 0 1 1340 0.818604)"/>
</clipPath>
</defs>
</svg>
