<svg width="16" height="17" viewBox="0 0 16 17" fill="none" xmlns="http://www.w3.org/2000/svg">
<path fill-rule="evenodd" clip-rule="evenodd" d="M8 16.2969C12.4183 16.2969 16 12.7152 16 8.29688C16 3.8786 12.4183 0.296875 8 0.296875C3.58172 0.296875 0 3.8786 0 8.29688C0 12.7152 3.58172 16.2969 8 16.2969ZM4.12955 8.89674C3.82133 8.44674 3.94269 7.83524 4.40062 7.5309C4.85841 7.2267 5.47961 7.34461 5.78783 7.79461L7.16643 9.80735L11.0617 5.39762C11.4243 4.98727 12.0556 4.94319 12.4718 5.29886C12.8879 5.65481 12.9314 6.27603 12.569 6.68638L7.81808 12.0645C7.64288 12.2629 7.39591 12.3829 7.13325 12.4013C7.08994 12.4043 7.0463 12.4045 7.00246 12.402C6.69228 12.3837 6.40873 12.2245 6.23538 11.9712L4.12955 8.89674Z" fill="#FA6102"/>
</svg>
