<svg width="14" height="15" viewBox="0 0 14 15" fill="none" xmlns="http://www.w3.org/2000/svg">
<path fill-rule="evenodd" clip-rule="evenodd" d="M0.583333 4.80498C1.4364 2.85525 3.15187 1.36798 5.24674 0.82665C4.65874 1.70818 4.18694 3.11331 3.93494 4.80498H0.583333ZM8.75326 0.82665C10.8481 1.36798 12.5636 2.85525 13.4167 4.80498H10.0651C9.81306 3.11331 9.34126 1.70818 8.75326 0.82665ZM13.748 5.73831C13.9123 6.33285 14 6.95865 14 7.60498C14 8.25131 13.9123 8.87711 13.748 9.47165H10.1789C10.2363 8.87385 10.2667 8.24851 10.2667 7.60498C10.2667 6.96145 10.2363 6.33611 10.1789 5.73831H13.748ZM13.4167 10.405C12.5636 12.3547 10.8481 13.842 8.75326 14.3833C9.34126 13.5018 9.81306 12.0966 10.0651 10.405H13.4167ZM5.24674 14.3833C3.15187 13.842 1.4364 12.3547 0.583333 10.405H3.93494C4.18694 12.0966 4.65874 13.5018 5.24674 14.3833ZM0.252004 9.47165C0.0877373 8.87711 0 8.25131 0 7.60498C0 6.95865 0.0877373 6.33285 0.252004 5.73831H3.82106C3.76366 6.33611 3.73333 6.96145 3.73333 7.60498C3.73333 8.24851 3.76366 8.87385 3.82106 9.47165H0.252004ZM7 0.60498C7.203 0.60498 7.39199 0.705778 7.57446 0.868178C7.81619 1.08284 8.03647 1.39878 8.2376 1.79218C8.62914 2.55752 8.93666 3.59725 9.12519 4.80498H4.87481C5.06334 3.59725 5.37086 2.55752 5.7624 1.79218C5.96353 1.39878 6.18381 1.08284 6.42554 0.868178C6.60801 0.705778 6.797 0.60498 7 0.60498ZM9.24327 9.47165H4.75673C4.69793 8.87618 4.66667 8.25038 4.66667 7.60498C4.66667 6.95958 4.69793 6.33378 4.75673 5.73831H9.24327C9.30207 6.33378 9.33333 6.95958 9.33333 7.60498C9.33333 8.25038 9.30207 8.87618 9.24327 9.47165ZM7 14.605C6.797 14.605 6.60801 14.5042 6.42554 14.3418C6.18381 14.1271 5.96353 13.8112 5.7624 13.4178C5.37086 12.6524 5.06334 11.6127 4.87481 10.405H9.12519C8.93666 11.6127 8.62914 12.6524 8.2376 13.4178C8.03647 13.8112 7.81619 14.1271 7.57446 14.3418C7.39199 14.5042 7.203 14.605 7 14.605Z" fill="#343A47"/>
</svg>
