<svg width="18" height="14" viewBox="0 0 18 14" fill="none" xmlns="http://www.w3.org/2000/svg">
<path d="M9.39878 13.0546L5.70588 12.987C4.5102 12.9635 3.31154 13.0105 2.13931 12.7667C0.356065 12.4024 0.229734 10.6161 0.097542 9.11784C-0.0846053 7.01143 -0.0140907 4.86678 0.329645 2.77794C0.523695 1.60589 1.28736 0.906513 2.46834 0.830408C6.45503 0.554211 10.4682 0.586944 14.4461 0.715799C14.8662 0.727612 15.2892 0.792175 15.7034 0.865665C17.7483 1.2241 17.7981 3.24828 17.9307 4.95226C18.0629 6.67382 18.007 8.40422 17.7544 10.1141C17.5517 11.5298 17.1638 12.717 15.5271 12.8316C13.4764 12.9814 11.4728 13.1021 9.41636 13.0637C9.41645 13.0546 9.40464 13.0546 9.39878 13.0546ZM7.22771 9.47042C8.77308 8.58312 10.289 7.71062 11.8255 6.82928C10.2772 5.94199 8.76424 5.06948 7.22771 4.18814V9.47042Z" fill="#FF0000"/>
</svg>
